<svg width="32" height="32" viewBox="0 0 32 32" fill="none" xmlns="http://www.w3.org/2000/svg">
<path d="M14.2305 7C14.8021 7 15.2685 7.19731 15.6295 7.59192C16.0056 7.98654 16.1937 8.49954 16.1937 9.13092V21.7981C16.1937 22.4452 16.0131 22.9661 15.6521 23.3607C15.291 23.7553 14.8247 23.9526 14.253 23.9526C13.5761 23.9526 13.0646 23.7159 12.7186 23.2423L5.85869 14.2688V21.7981C5.85869 22.4452 5.68569 22.9661 5.33968 23.3607C4.99368 23.7553 4.52733 23.9526 3.94063 23.9526C3.36897 23.9526 2.90262 23.7553 2.54157 23.3607C2.18052 22.9661 2 22.4452 2 21.7981V9.13092C2 8.49954 2.18052 7.98654 2.54157 7.59192C2.90262 7.19731 3.36897 7 3.94063 7C4.5875 7 5.09146 7.23677 5.45251 7.71031L12.3124 16.6602V9.13092C12.3124 8.48375 12.4854 7.97075 12.8314 7.59192C13.1925 7.19731 13.6588 7 14.2305 7Z" fill="url(#paint0_linear_22211_213)"/>
<path d="M27.9917 11.9248C28.6085 11.9248 29.0974 12.0984 29.4584 12.4457C29.8195 12.7929 30 13.2665 30 13.8663V22.0585C30 22.611 29.812 23.0687 29.4359 23.4318C29.0598 23.779 28.5709 23.9526 27.9691 23.9526C27.4275 23.9526 26.9838 23.8027 26.6378 23.5028C26.2917 23.1871 26.1112 22.7688 26.0962 22.2479C25.7502 22.8162 25.3064 23.2502 24.7648 23.5501C24.2383 23.85 23.629 24 22.937 24C21.5079 24 20.4473 23.5896 19.7553 22.7688C19.0633 21.9322 18.7173 20.6695 18.7173 18.9805V13.8663C18.7173 13.2665 18.8978 12.7929 19.2589 12.4457C19.6199 12.0984 20.1088 11.9248 20.7256 11.9248C21.3424 11.9248 21.8313 12.0984 22.1924 12.4457C22.5534 12.7929 22.7339 13.2665 22.7339 13.8663V19.0752C22.7339 20.2117 23.2003 20.7799 24.133 20.7799C24.6746 20.7799 25.1183 20.5747 25.4643 20.1643C25.8104 19.7539 25.9834 19.2173 25.9834 18.5543V13.8663C25.9834 13.2665 26.1639 12.7929 26.5249 12.4457C26.886 12.0984 27.3749 11.9248 27.9917 11.9248Z" fill="url(#paint1_linear_22211_213)"/>
<defs>
<linearGradient id="paint0_linear_22211_213" x1="32.7113" y1="23.8106" x2="33.1453" y2="23.8106" gradientUnits="userSpaceOnUse">
<stop stop-color="#FD377E"/>
<stop offset="1" stop-color="white"/>
</linearGradient>
<linearGradient id="paint1_linear_22211_213" x1="32.7113" y1="23.8106" x2="33.1453" y2="23.8106" gradientUnits="userSpaceOnUse">
<stop stop-color="#FD377E"/>
<stop offset="1" stop-color="white"/>
</linearGradient>
</defs>
</svg>
