<svg width="10" height="10" viewBox="0 0 10 10" fill="none" xmlns="http://www.w3.org/2000/svg">
<path d="M9.20703 0.722195H6.91536L6.72439 0.378445C6.648 0.225667 6.49523 0.111084 6.32335 0.111084H4.12717C3.9553 0.111084 3.80252 0.225667 3.72613 0.378445L3.55425 0.722195H1.26259C1.09071 0.722195 0.957031 0.874973 0.957031 1.02775V1.63886C0.957031 1.81074 1.09071 1.94442 1.26259 1.94442H9.20703C9.35981 1.94442 9.51259 1.81074 9.51259 1.63886V1.02775C9.51259 0.874973 9.35981 0.722195 9.20703 0.722195ZM1.96918 9.02949C1.98828 9.52602 2.38932 9.88886 2.88585 9.88886H7.56467C8.0612 9.88886 8.46224 9.52602 8.48134 9.02949L8.90148 2.55553H1.56814L1.96918 9.02949Z" fill="#F8F9FA"/>
</svg>
