<svg width="9" height="10" viewBox="0 0 9 10" fill="none" xmlns="http://www.w3.org/2000/svg">
<path d="M8.36133 0.722195H6.06966L5.87869 0.378445C5.8023 0.225667 5.64952 0.111084 5.47765 0.111084H3.28147C3.10959 0.111084 2.95681 0.225667 2.88043 0.378445L2.70855 0.722195H0.416884C0.245009 0.722195 0.111328 0.874973 0.111328 1.02775V1.63886C0.111328 1.81074 0.245009 1.94442 0.416884 1.94442H8.36133C8.51411 1.94442 8.66688 1.81074 8.66688 1.63886V1.02775C8.66688 0.874973 8.51411 0.722195 8.36133 0.722195ZM1.12348 9.02949C1.14258 9.52602 1.54362 9.88886 2.04015 9.88886H6.71897C7.21549 9.88886 7.61654 9.52602 7.63563 9.02949L8.05577 2.55553H0.722439L1.12348 9.02949Z" fill="#343A40"/>
</svg>
